<?xml version="1.0" encoding="utf-8"?><svg xmlns="http://www.w3.org/2000/svg" xmlns:xlink="http://www.w3.org/1999/xlink" width="1632" height="810" preserveAspectRatio="xMidYMid" viewBox="0 0 1632 810" style="z-index:1;margin-right:-2px;display:block;background-color:rgb(241, 242, 243);animation-play-state:paused" ><g transform="translate(816,405) scale(1,1) translate(-816,-405)" style="transform:matrix(1, 0, 0, 1, 0, 0);animation-play-state:paused" ><linearGradient id="lg-0.8003587560097742" x1="0" x2="0.5" y1="0" y2="0" gradientUnits="objectBoundingBox" style="animation-play-state:paused" ><stop stop-color="#141414" offset="0" style="animation-play-state:paused" ></stop>

  
<stop stop-color="#050505" offset="1" style="animation-play-state:paused" ></stop></linearGradient>
<path d="M -777.225 810 Q -617.247 703.343 -736.203 590.281 T -614.535 378.043 T -416.364 180.516 T -148.439 4.42502 T 180.118 -144.233 T 558.116 -260.396 T 972.684 -340.108 T 1409.7 -380.654 T 1854.3 -380.654 T 2291.32 -340.108 T 2705.88 -260.396 T 3083.88 -144.233 T 3412.44 4.42502 T 3680.36 180.516 T 3878.54 378.043 T 4000.2 590.281 T 4041.23 810" fill="url(#lg-0.8003587560097742)" opacity="1" style="animation-play-state:paused" ></path>
<path d="M -536.303 810 Q -419.7 706.582 -494.639 600.048 T -371.25 398.164 T -170.878 212.107 T 98.7786 49.0261 T 427.356 -84.8106 T 802.227 -184.26 T 1208.99 -245.501 T 1632 -266.18 T 2055.01 -245.501 T 2461.77 -184.26 T 2836.64 -84.8106 T 3165.22 49.0261 T 3434.88 212.107 T 3635.25 398.164 T 3758.64 600.048 T 3800.3 810" fill="url(#lg-0.8003587560097742)" opacity="1" style="animation-play-state:paused" ></path>
<path d="M -295.38 810 Q -214.761 705.228 -247.057 597.136 T -104.509 394.945 T 125.114 213.567 T 430.298 62.0968 T 795.741 -51.8705 T 1203.12 -122.62 T 1632 -146.604 T 2060.88 -122.62 T 2468.26 -51.8705 T 2833.7 62.0968 T 3138.89 213.567 T 3368.51 394.945 T 3511.06 597.136 T 3559.38 810" fill="url(#lg-0.8003587560097742)" opacity="1" style="animation-play-state:paused" ></path>
<path d="M -54.4575 810 Q 70.1937 707.523 3.00713 593.361 T 171.485 391.486 T 439.494 218.131 T 788.771 85.112 T 1195.51 1.49251 T 1632 -27.0285 T 2068.49 1.49251 T 2475.23 85.112 T 2824.51 218.131 T 3092.52 391.486 T 3260.99 593.361 T 3318.46 810" fill="url(#lg-0.8003587560097742)" opacity="1" style="animation-play-state:paused" ></path>
<path d="M 186.465 810 Q 237.863 717.248 245.019 607.87 T 415.939 422.116 T 685.376 267.785 T 1031.5 157.382 T 1426.28 99.8496 T 1837.72 99.8496 T 2232.5 157.382 T 2578.62 267.785 T 2848.06 422.116 T 3018.98 607.87 T 3077.53 810" fill="url(#lg-0.8003587560097742)" opacity="1" style="animation-play-state:paused" ></path>
<path d="M 427.387 810 Q 539.526 714.01 500.035 605.514 T 709.213 425.692 T 1029.69 292.223 T 1422.82 221.206 T 1841.18 221.206 T 2234.31 292.223 T 2554.79 425.692 T 2763.97 605.514 T 2836.61 810" fill="url(#lg-0.8003587560097742)" opacity="1" style="animation-play-state:paused" ></path>
<path d="M 668.31 810 Q 842.953 713.163 763.745 602.473 T 1031.15 436.048 T 1417.56 343.69 T 1846.44 343.69 T 2232.85 436.048 T 2500.25 602.473 T 2595.69 810" fill="url(#lg-0.8003587560097742)" opacity="1" style="animation-play-state:paused" ></path>
<path d="M 909.232 810 Q 1012.02 737.552 1006.07 630.637 T 1270.62 499.334 T 1632 451.273 T 1993.38 499.334 T 2257.94 630.637 T 2354.77 810" fill="url(#lg-0.8003587560097742)" opacity="1" style="animation-play-state:paused" ></path>
<path d="M 1150.16 810 Q 1303.53 729.426 1291.28 640.895 T 1632 570.849 T 1972.72 640.895 T 2113.84 810" fill="url(#lg-0.8003587560097742)" opacity="1" style="animation-play-state:paused" ></path>
<path d="M 1391.08 810 Q 1538.59 764.188 1632 690.424 T 1872.92 810" fill="url(#lg-0.8003587560097742)" opacity="1" style="animation-play-state:paused" ></path></g></svg>