<?xml version="1.0" encoding="utf-8"?><svg xmlns="http://www.w3.org/2000/svg" xmlns:xlink="http://www.w3.org/1999/xlink" width="3000" height="2000" preserveAspectRatio="xMidYMid" viewBox="0 0 3000 2000" style="z-index:1;margin-right:-2px;display:block;background-color:rgb(241, 242, 243);animation-play-state:paused" ><g transform="translate(1500,1000) scale(1,1) translate(-1500,-1000)" style="transform:matrix(1, 0, 0, 1, 0, 0);animation-play-state:paused" ><linearGradient id="lg-0.7258472195163412" x1="0" x2="0.5" y1="0" y2="0" gradientUnits="objectBoundingBox" style="animation-play-state:paused" ><stop stop-color="#1e1e1e" offset="0" style="animation-play-state:paused" ></stop>

  
<stop stop-color="#000000" offset="1" style="animation-play-state:paused" ></stop></linearGradient>
<path d="M -2608.26 2000 Q -2383.32 1710.98 -2539.21 1415.12 T -2333.77 844.636 T -1996.99 302.604 T -1537.17 -197.633 T -965.636 -643.757 T -296.45 -1024.78 T 453.905 -1331.33 T 1266.95 -1555.85 T 2122.68 -1692.81 T 3000 -1738.84 T 3877.32 -1692.81 T 4733.05 -1555.85 T 5546.09 -1331.33 T 6296.45 -1024.78 T 6965.64 -643.757 T 7537.17 -197.633 T 7996.99 302.604 T 8333.77 844.636 T 8539.21 1415.12 T 8608.26 2000" fill="url(#lg-0.7258472195163412)" opacity="0.89" style="opacity:0.89;animation-play-state:paused" ></path>
<path d="M -2327.84 2000 Q -2158.62 1712.61 -2255.18 1415.38 T -2039.17 846.702 T -1685.7 309.485 T -1204.42 -181.619 T -608.45 -613.214 T 85.9462 -973.528 T 859.83 -1252.73 T 1692.09 -1443.21 T 2560.03 -1539.76 T 3439.97 -1539.76 T 4307.91 -1443.21 T 5140.17 -1252.73 T 5914.05 -973.528 T 6608.45 -613.214 T 7204.42 -181.619 T 7685.7 309.485 T 8039.17 846.702 T 8255.18 1415.38 T 8327.84 2000" fill="url(#lg-0.7258472195163412)" opacity="0.89" style="opacity:0.89;animation-play-state:paused" ></path>
<path d="M -2047.43 2000 Q -1966.63 1711.33 -1970.75 1415.68 T -1743.03 849.118 T -1371.2 317.523 T -866.556 -162.95 T -244.425 -577.704 T 476.285 -914.135 T 1273.68 -1162.02 T 2123.52 -1313.83 T 3000 -1364.95 T 3876.48 -1313.83 T 4726.32 -1162.02 T 5523.71 -914.135 T 6244.43 -577.704 T 6866.56 -162.95 T 7371.2 317.523 T 7743.03 849.118 T 7970.75 1415.68 T 8047.43 2000" fill="url(#lg-0.7258472195163412)" opacity="0.89" style="opacity:0.89;animation-play-state:paused" ></path>
<path d="M -1767.02 2000 Q -1582.17 1715.21 -1685.85 1416.04 T -1445.11 851.97 T -1053 326.993 T -522.868 -141.012 T 127.23 -536.108 T 875.158 -844.839 T 1695.44 -1056.69 T 2560.16 -1164.45 T 3439.84 -1164.45 T 4304.56 -1056.69 T 5124.84 -844.839 T 5872.77 -536.108 T 6522.87 -141.012 T 7053 326.993 T 7445.11 851.97 T 7685.85 1416.04 T 7767.02 2000" fill="url(#lg-0.7258472195163412)" opacity="0.89" style="opacity:0.89;animation-play-state:paused" ></path>
<path d="M -1486.6 2000 Q -1423.48 1716.46 -1400.4 1416.47 T -1145.08 855.367 T -730.475 338.251 T -172.508 -115.006 T 507.376 -486.984 T 1283.05 -763.388 T 2124.71 -933.597 T 3000 -991.07 T 3875.29 -933.597 T 4716.95 -763.388 T 5492.62 -486.984 T 6172.51 -115.006 T 6730.48 338.251 T 7145.08 855.367 T 7400.4 1416.47 T 7486.6 2000" fill="url(#lg-0.7258472195163412)" opacity="0.89" style="opacity:0.89;animation-play-state:paused" ></path>
<path d="M -1206.19 2000 Q -1017.58 1714.74 -1114.28 1416.99 T -842.547 859.458 T -402.881 351.775 T 185.508 -83.8731 T 896.904 -428.446 T 1700.22 -666.884 T 2560.33 -788.766 T 3439.67 -788.766 T 4299.78 -666.884 T 5103.1 -428.446 T 5814.49 -83.8731 T 6402.88 351.775 T 6842.55 859.458 T 7114.28 1416.99 T 7206.19 2000" fill="url(#lg-0.7258472195163412)" opacity="0.89" style="opacity:0.89;animation-play-state:paused" ></path>
<path d="M -925.779 2000 Q -697.666 1715.52 -827.351 1417.62 T -537.005 864.446 T -69.2975 368.211 T 552.317 -46.1984 T 1296.67 -358.003 T 2126.43 -551.568 T 3000 -617.186 T 3873.57 -551.568 T 4703.33 -358.003 T 5447.68 -46.1984 T 6069.3 368.211 T 6537 864.446 T 6827.35 1417.62 T 6925.78 2000" fill="url(#lg-0.7258472195163412)" opacity="0.89" style="opacity:0.89;animation-play-state:paused" ></path>
<path d="M -645.366 2000 Q -514.962 1711.65 -539.438 1418.4 T -227.811 870.609 T 271.404 388.45 T 929.196 -0.0516676 T 1707.34 -272.318 T 2560.6 -412.525 T 3439.4 -412.525 T 4292.66 -272.318 T 5070.8 -0.0516676 T 5728.6 388.45 T 6227.81 870.609 T 6539.44 1418.4 T 6645.37 2000" fill="url(#lg-0.7258472195163412)" opacity="0.89" style="opacity:0.89;animation-play-state:paused" ></path>
<path d="M -364.953 2000 Q -150.566 1711.35 -250.295 1419.39 T 85.8649 878.349 T 620.619 413.746 T 1317.52 57.2433 T 2129.09 -166.864 T 3000 -243.302 T 3870.91 -166.864 T 4682.48 57.2433 T 5379.38 413.746 T 5914.14 878.349 T 6250.3 1419.39 T 6364.95 2000" fill="url(#lg-0.7258472195163412)" opacity="0.89" style="opacity:0.89;animation-play-state:paused" ></path>
<path d="M -84.5406 2000 Q 80.9529 1718.17 40.405 1420.66 T 405.119 888.248 T 980.055 445.907 T 1718.64 129.469 T 2561.02 -35.4296 T 3438.98 -35.4296 T 4281.36 129.469 T 5019.94 445.907 T 5594.88 888.248 T 5959.6 1420.66 T 6084.54 2000" fill="url(#lg-0.7258472195163412)" opacity="0.89" style="opacity:0.89;animation-play-state:paused" ></path>
<path d="M 195.872 2000 Q 377.126 1720.58 333.116 1422.32 T 731.413 901.183 T 1351.78 487.609 T 2133.48 222.077 T 3000 130.581 T 3866.52 222.077 T 4648.23 487.609 T 5268.59 901.183 T 5666.88 1422.32 T 5804.13 2000" fill="url(#lg-0.7258472195163412)" opacity="0.89" style="opacity:0.89;animation-play-state:paused" ></path>
<path d="M 476.285 2000 Q 598.645 1718.55 628.484 1424.56 T 1066.72 918.525 T 1738.14 542.932 T 2561.76 343.084 T 3438.24 343.084 T 4261.86 542.932 T 4933.28 918.525 T 5371.52 1424.56 T 5523.71 2000" fill="url(#lg-0.7258472195163412)" opacity="0.89" style="opacity:0.89;animation-play-state:paused" ></path>
<path d="M 756.698 2000 Q 816.181 1731.72 927.459 1427.68 T 1413.75 942.497 T 2141.53 618.306 T 3000 504.465 T 3858.47 618.306 T 4586.25 942.497 T 5072.54 1427.68 T 5243.3 2000" fill="url(#lg-0.7258472195163412)" opacity="0.89" style="opacity:0.89;animation-play-state:paused" ></path>
<path d="M 1037.11 2000 Q 1242.34 1726.52 1231.5 1432.22 T 1776.16 976.901 T 2563.22 724.216 T 3436.78 724.216 T 4223.84 976.901 T 4768.5 1432.22 T 4962.89 2000" fill="url(#lg-0.7258472195163412)" opacity="0.89" style="opacity:0.89;animation-play-state:paused" ></path>
<path d="M 1317.52 2000 Q 1390.66 1715.45 1542.93 1439.17 T 2158.76 1028.62 T 3000 878.349 T 3841.24 1028.62 T 4457.07 1439.17 T 4682.48 2000" fill="url(#lg-0.7258472195163412)" opacity="0.89" style="opacity:0.89;animation-play-state:paused" ></path>
<path d="M 1597.94 2000 Q 1809.67 1730.99 1865.71 1450.59 T 2566.74 1111.04 T 3433.26 1111.04 T 4134.29 1450.59 T 4402.06 2000" fill="url(#lg-0.7258472195163412)" opacity="0.89" style="opacity:0.89;animation-play-state:paused" ></path>
<path d="M 1878.35 2000 Q 2095.5 1742.97 2206.87 1471.25 T 3000 1252.23 T 3793.13 1471.25 T 4121.65 2000" fill="url(#lg-0.7258472195163412)" opacity="0.89" style="opacity:0.89;animation-play-state:paused" ></path>
<path d="M 2158.76 2000 Q 2374 1751.37 2579.38 1514.31 T 3420.62 1514.31 T 3841.24 2000" fill="url(#lg-0.7258472195163412)" opacity="0.89" style="opacity:0.89;animation-play-state:paused" ></path>
<path d="M 2439.17 2000 Q 2711.2 1763.53 3000 1626.12 T 3560.83 2000" fill="url(#lg-0.7258472195163412)" opacity="0.89" style="opacity:0.89;animation-play-state:paused" ></path>
<path d="M 2719.59 2000 Q 3000 1851.93 3280.41 2000" fill="url(#lg-0.7258472195163412)" opacity="0.89" style="opacity:0.89;animation-play-state:paused" ></path></g></svg>